<svg width="248" height="84" viewBox="0 0 248 84" fill="none" xmlns="http://www.w3.org/2000/svg">
<g clip-path="url(#clip0_471_932)">
<path d="M248 -525H0V608H248V-525Z" fill="#44804F"/>
<path d="M56.1165 45.5547L56.0836 45.5612C56.0573 45.4409 55.2628 41.6182 55.2628 41.6182L21.4512 48.4721C21.4512 48.4721 22.2676 52.3452 22.307 52.4895L22.3552 52.4807C23.9596 57.8169 28.7204 61.7228 34.5078 63.024L34.9412 64.7648C35.4162 66.6719 37.4672 67.9053 39.6517 67.6757C40.1179 69.6308 40.5863 71.586 41.0635 73.5389C41.5735 75.6253 44.1214 76.6378 46.3081 75.6602C47.7834 74.9998 48.5714 73.5542 48.2212 72.0758C47.7593 70.1251 47.2953 68.1743 46.829 66.2235C48.9194 65.5915 50.1977 63.6801 49.7227 61.7687L49.3791 60.3844C54.4989 57.0012 57.2897 51.3129 56.1165 45.5547Z" fill="#E3E3E3"/>
<path d="M92.5954 52.3518C91.7548 51.7045 90.7961 51.1949 89.7214 50.8275C88.6445 50.4601 87.5106 50.2239 86.3155 50.1211C85.1204 50.0183 83.9274 49.9593 82.7323 49.944C81.5372 49.9287 80.3946 49.9068 79.3045 49.8784C78.2122 49.8499 77.2557 49.7756 76.4305 49.6575C75.6053 49.5394 74.9421 49.2813 74.4408 48.8833C73.9396 48.4853 73.69 47.9473 73.69 47.2693C73.69 46.2393 74.7079 45.5023 76.7413 45.0605C78.7748 44.6187 81.0162 44.5225 83.4634 44.774C85.9105 45.0255 87.7229 45.5023 88.9027 46.2108L94.3859 41.8807C93.2367 40.7916 91.7395 39.9081 89.8965 39.2301C88.0535 38.5521 86.1229 38.1104 84.1025 37.9048C82.0822 37.6992 80.0334 37.743 77.954 38.0382C75.8745 38.3335 74.0184 38.8496 72.3811 39.5844C70.7438 40.3214 69.4108 41.3514 68.3776 42.6767C67.3445 44.002 66.8301 45.5351 66.8301 47.2715C66.8301 48.892 67.073 50.2917 67.559 51.4683C68.0449 52.647 68.7081 53.5612 69.5487 54.2085C70.3892 54.8559 71.3457 55.3654 72.4227 55.7328C73.4996 56.1024 74.64 56.3364 75.8504 56.4392C77.0587 56.542 78.2604 56.6011 79.4555 56.6164C80.6507 56.6317 81.7845 56.6535 82.8614 56.682C83.9384 56.7126 84.8949 56.7848 85.7354 56.9028C86.576 57.0209 87.2392 57.279 87.7251 57.677C88.2111 58.0751 88.454 58.613 88.454 59.291C88.454 60.3232 87.4362 61.058 85.4027 61.4998C83.3693 61.9416 81.1278 62.0378 78.6807 61.7863C76.2335 61.537 74.4189 61.058 73.2413 60.3495L67.8019 64.6796C68.9511 65.7709 70.4483 66.6545 72.2913 67.3302C74.1344 68.0082 76.065 68.4499 78.0853 68.6555C80.1034 68.8611 82.1457 68.8174 84.2098 68.5221C86.2739 68.2291 88.1235 67.7129 89.7608 66.9759C91.3981 66.2389 92.7311 65.2089 93.7642 63.8836C94.7952 62.5583 95.3118 61.0274 95.3118 59.2888C95.3118 57.6683 95.0688 56.2686 94.5829 55.0899C94.097 53.9111 93.4337 52.9991 92.5932 52.3496L92.5954 52.3518Z" fill="#E3E3E3"/>
<path d="M120.503 39.8906C118.04 38.5063 115.366 37.813 112.476 37.813C109.587 37.813 106.91 38.5063 104.45 39.8906C101.987 41.2749 100.041 43.1535 98.6119 45.5242C97.1804 47.8948 96.4668 50.482 96.4668 53.2791C96.4668 56.0762 97.1804 58.6634 98.6119 61.034C100.041 63.4047 101.987 65.2833 104.45 66.6676C106.912 68.052 109.587 68.7452 112.476 68.7452C115.366 68.7452 118.04 68.0541 120.503 66.6676C122.965 65.2833 124.911 63.4047 126.341 61.034C127.77 58.6634 128.486 56.0784 128.486 53.2791C128.486 50.4798 127.77 47.8948 126.341 45.5242C124.909 43.1535 122.963 41.2749 120.503 39.8906ZM118.955 59.3785C117.171 61.0581 115.011 61.8979 112.476 61.8979C109.942 61.8979 107.781 61.0581 105.997 59.3785C104.213 57.6989 103.322 55.6673 103.322 53.2813C103.322 50.8953 104.213 48.8615 105.997 47.1841C107.781 45.5045 109.939 44.6647 112.476 44.6647C115.013 44.6647 117.171 45.5045 118.955 47.1841C120.739 48.8637 121.63 50.8953 121.63 53.2813C121.63 55.6673 120.737 57.7011 118.955 59.3785Z" fill="#E3E3E3"/>
<path d="M152.456 57.4341L137.684 37.8149H130.828V68.745H137.684V49.1259L152.456 68.745H159.31V37.8149H152.456V57.4341Z" fill="#E3E3E3"/>
<path d="M175.098 37.8149L161.564 68.7472H168.95L171.25 63.5772H186.332L188.586 68.7472H196.015L182.481 37.8149H175.096H175.098ZM174.214 56.7277L178.769 46.3003L183.324 56.7277H174.214Z" fill="#E3E3E3"/>
<path d="M225.143 54.672C226.189 52.9202 226.712 51.0263 226.712 48.9946C226.712 45.9023 225.62 43.2648 223.44 41.0844C221.257 38.904 218.633 37.8149 215.566 37.8149H198.23V68.7472H205.086V60.1306H213.844L218.797 68.7472H226.714L220.964 58.7616C222.704 57.7906 224.096 56.4281 225.143 54.6741V54.672ZM218.598 52.0214C217.757 52.8612 216.748 53.2811 215.569 53.2811H205.086V44.6645H215.569C216.748 44.6645 217.757 45.0909 218.598 45.946C219.439 46.8011 219.859 47.8181 219.859 48.9946C219.859 50.1712 219.439 51.1816 218.598 52.0214Z" fill="#E3E3E3"/>
<path d="M68.2813 33.9461L67.7494 31.3808C67.6487 30.8909 67.1694 30.5782 66.6791 30.6788L65.2388 30.9762L65.114 30.4732C63.9386 25.745 60.2481 22.0906 55.5245 20.3192C54.754 17.0825 53.9879 13.8436 53.1977 10.6091C52.7009 8.57962 50.2253 7.5955 48.0977 8.54682C46.6618 9.18978 45.8978 10.5938 46.2371 12.0328C46.7997 14.4144 47.3688 16.7938 47.9379 19.1732C47.0076 19.2235 46.0708 19.3416 45.1295 19.5319C44.0439 19.7527 43.0041 20.0589 42.0213 20.4438C41.45 18.0382 40.8765 15.6325 40.2877 13.2291C39.7909 11.1996 37.3152 10.2155 35.1877 11.1668C33.7517 11.8097 32.9878 13.2138 33.3271 14.6528C34.1151 17.9901 34.9162 21.3274 35.713 24.6646C32.55 28.0522 31.1098 32.5967 32.2392 37.1434L32.3946 37.7688L30.5691 38.1472C30.0788 38.2478 29.7658 38.7267 29.8665 39.2166L30.3984 41.7819C30.4991 42.2718 30.9784 42.5845 31.4687 42.4839L67.5809 35.022C68.0712 34.9214 68.3842 34.4425 68.2835 33.9526L68.2813 33.9461Z" fill="#E3E3E3"/>
</g>
<defs>
<clipPath id="clip0_471_932">
<rect width="248" height="248" fill="white" transform="translate(0 -82)"/>
</clipPath>
</defs>
</svg>
